<svg width="146" height="40" viewBox="0 0 146 40" fill="none" xmlns="http://www.w3.org/2000/svg">
<g clip-path="url(#clip0_15349_6165)">
<path d="M9.49267 31.6454C9.50272 31.063 9.60235 30.452 9.63337 29.8365C9.64735 29.5521 9.63031 29.2655 9.61808 28.9807C9.60846 28.7513 9.64211 28.5314 9.72208 28.3188C9.77408 28.1802 9.79593 28.0276 9.75529 27.8968C9.63031 27.497 9.733 27.1068 9.76403 26.7121C9.82783 25.8976 9.95105 25.0862 9.87109 24.2645C9.84312 23.9765 9.8925 23.6939 9.96897 23.4168C9.99737 23.3137 10.0065 23.2078 9.9847 23.1029C9.87808 22.5955 9.98295 22.0981 10.0568 21.6015C10.1175 21.1927 10.1639 20.7916 10.1228 20.3718C10.0625 19.7554 10.1175 19.1381 10.3976 18.5748C10.5864 18.1954 10.8731 17.9197 11.2947 17.8216C11.4914 17.7757 11.6788 17.6894 11.8746 17.6385C12.4973 17.4773 12.992 17.8579 13.0265 18.553C13.0711 19.4429 13.0846 20.3337 13.0501 21.2241C13.0274 21.8032 13.0794 22.3915 12.971 22.9598C12.8757 23.4604 13.0343 23.9506 12.9544 24.4407C12.9006 24.7687 12.9172 25.0926 12.9225 25.4228C12.9373 26.365 12.9264 27.3094 12.8779 28.2502C12.8591 28.615 12.877 28.9852 12.7984 29.3504C12.7206 29.7129 13.009 30.0169 13.3546 29.9587C13.9918 29.8515 14.6153 29.8892 15.2467 30.0355C15.6807 30.1363 16.1294 30.1677 16.5594 30.3017C17.4561 30.582 18.2772 30.9949 18.9549 31.6895C19.1668 31.9066 19.3512 32.1465 19.5523 32.3718C19.6252 32.4535 19.6829 32.5462 19.7218 32.6575C19.8105 32.9114 20.0845 32.9537 20.23 32.7293C20.5521 32.2332 20.9261 31.7817 21.367 31.4046C21.7323 31.0916 22.1273 30.7968 22.5783 30.6319C22.9856 30.4825 23.3793 30.2953 23.8093 30.1999C24.2379 30.105 24.6714 30.0509 25.1014 29.9705C25.5746 29.8824 26.0509 29.8842 26.5294 29.9569C27.0197 30.0314 27.2745 29.7311 27.2172 29.2219C27.1613 28.7222 27.1128 28.2175 27.1145 27.7155C27.1176 27.035 27.0704 26.3568 27.0529 25.6781C27.0459 25.411 26.9843 25.1385 27.0084 24.87C27.1045 23.7848 26.9441 22.7054 26.9559 21.6211C26.966 20.7085 26.9515 19.7931 26.9446 18.8791C26.9415 18.5053 26.976 18.1273 27.2618 17.857C27.4803 17.6499 27.732 17.5799 28.0545 17.6267C28.3708 17.6726 28.6509 17.7871 28.9293 17.9138C29.2247 18.0478 29.4524 18.2427 29.5944 18.5916C29.84 19.1944 29.8924 19.8135 29.8788 20.4445C29.8649 21.0919 29.8867 21.7301 30.0353 22.362C30.0672 22.4983 30.0694 22.6536 30.0418 22.7908C29.9501 23.2451 30.0366 23.6866 30.1192 24.1255C30.1585 24.334 30.1205 24.5298 30.1113 24.7305C30.0847 25.3175 30.1742 25.8998 30.1677 26.4849C30.1642 26.8243 30.2031 27.1536 30.2695 27.4829C30.3626 27.9458 30.3163 28.4169 30.325 28.883C30.3394 29.6294 30.3923 30.3707 30.4622 31.1125C30.4889 31.3946 30.502 31.6822 30.4386 31.9675C30.4002 32.1406 30.384 32.3145 30.4382 32.4999C30.502 32.7175 30.3814 32.9146 30.2293 33.0368C30.0637 33.1704 29.8688 33.2571 29.6416 33.2971C29.1841 33.3775 28.744 33.3793 28.2852 33.2898C27.9789 33.2299 27.6503 33.2712 27.3396 33.3675C27.2198 33.4048 27.0888 33.422 26.9725 33.3889C26.3913 33.2253 25.8259 33.4725 25.25 33.4461C24.7601 33.4239 24.2939 33.5947 23.825 33.7119C23.52 33.7882 23.2346 33.9458 22.9358 34.0535C22.5272 34.2007 22.2029 34.5114 21.8036 34.6749C21.7769 34.6858 21.7507 34.7013 21.7293 34.7208C21.3054 35.1051 20.8361 35.4344 20.4472 35.8605C20.3982 35.9142 20.3624 35.9805 20.3191 36.04C20.1321 36.2957 19.8437 36.3303 19.6615 36.075C19.44 35.7647 19.1843 35.4853 18.906 35.2455C18.677 35.0483 18.4773 34.8003 18.1902 34.674C17.8109 34.5077 17.4954 34.2143 17.0947 34.0866C16.361 33.8536 15.682 33.4611 14.8744 33.4443C14.2535 33.4316 13.6304 33.3884 13.0077 33.3634C12.5969 33.3466 12.1888 33.2594 11.7732 33.2776C11.5696 33.2862 11.3695 33.308 11.1711 33.3553C11.1152 33.3684 11.057 33.3766 10.9998 33.3775C10.6791 33.3839 10.371 33.2926 10.0642 33.2194C9.76665 33.1486 9.6207 32.8538 9.56302 32.5299C9.5132 32.2441 9.52019 31.9629 9.49267 31.6454Z" fill="url(#paint0_linear_15349_6165)"/>
<path d="M6.90839 12.6011C6.91757 12.3327 6.90053 12.1387 6.88305 11.9429C6.84022 11.4709 6.97306 11.0325 7.16883 10.6146C7.27632 10.3852 7.33575 10.139 7.45155 9.91005C7.70063 9.41763 7.97723 8.96063 8.41814 8.62584C8.56846 8.51182 8.74805 8.4723 8.90056 8.37463C9.43061 8.03393 10.0009 7.8068 10.6179 7.71867C10.8036 7.69232 10.9985 7.68687 11.1838 7.71185C11.6618 7.77636 12.1407 7.72639 12.6192 7.74638C13.6347 7.78908 14.6525 7.78454 15.6671 7.84359C16.1321 7.87085 16.5966 7.88993 17.0576 7.86267C17.4757 7.83814 17.8931 7.79317 18.313 7.78499C18.7272 7.77681 19.138 7.81588 19.5479 7.8654C19.7812 7.89356 20.0089 7.82815 20.24 7.82996C20.653 7.83314 21.0655 7.84813 21.4784 7.87221C21.9989 7.90265 22.5141 7.75683 23.0389 7.78817C24.0693 7.84904 25.1049 7.77727 26.1318 7.84586C26.7322 7.88584 27.3164 7.82088 27.8998 7.76364C28.522 7.70277 29.1185 7.78545 29.7259 7.87221C30.5483 7.98987 31.2474 8.36554 31.8723 8.90885C32.0655 9.07647 32.2245 9.29316 32.3346 9.52483C32.6178 10.1208 32.9495 10.7037 33.0146 11.3846C33.0412 11.6613 33.1343 11.9338 33.1242 12.2055C33.1024 12.7806 33.0438 13.3579 32.7087 13.8504C32.651 13.9353 32.6217 14.0312 32.6091 14.1207C32.5496 14.5295 32.1996 14.7035 31.9763 14.9738C31.5581 15.4803 31.0757 15.9009 30.4067 16.0186C30.2638 16.0436 30.1484 16.173 29.999 16.2207C29.7927 16.2866 29.5935 16.3211 29.3829 16.2548C29.3291 16.238 29.2662 16.2316 29.2111 16.2416C28.4255 16.3825 27.7757 16.0563 27.1469 15.6216C26.6164 15.255 26.4058 14.6985 26.2471 14.1039C26.0435 13.3425 26.1488 12.6198 26.5653 11.9647C26.9633 11.3387 27.5161 10.9308 28.2581 10.8895C28.7095 10.864 29.0993 11.1847 29.2247 11.6263C29.2841 11.8361 29.1251 12.1728 28.9109 12.2913C28.5225 12.5057 28.3682 12.8405 28.5006 13.1812C28.6571 13.5842 29.0796 13.7395 29.5008 13.6709C29.9243 13.6019 30.207 13.3457 30.3932 13.02C30.5898 12.6761 30.7934 12.28 30.595 11.8371C30.5522 11.7421 30.5238 11.6385 30.5522 11.5295C30.5706 11.4587 30.5422 11.4028 30.5098 11.3396C30.3604 11.048 30.2004 10.7695 29.9715 10.5306C29.8557 10.4097 29.704 10.3934 29.5764 10.3148C29.365 10.1849 29.1408 10.0541 28.8817 10.0245C28.6448 9.99727 28.411 9.93686 28.1738 9.92368C27.704 9.89733 27.2631 10.0482 26.82 10.1894C26.3839 10.3284 26.0243 10.5946 25.6716 10.8786C25.6017 10.9349 25.5405 11.0021 25.5073 11.0866C25.3457 11.5004 25.024 11.644 24.6233 11.6981C23.9714 11.7866 23.3185 11.7353 22.6666 11.7376C20.4332 11.7448 18.1998 11.7457 15.9664 11.7326C15.6968 11.7312 15.4207 11.7144 15.1497 11.6535C14.881 11.5931 14.6734 11.4518 14.5568 11.2043C14.3842 10.8377 14.0848 10.6305 13.758 10.4511C13.2808 10.189 12.7717 10.0213 12.2408 9.92913C11.8082 9.85418 11.3922 9.98228 10.9792 10.0868C10.6437 10.1722 10.333 10.3089 10.0625 10.5606C9.70415 10.8935 9.54597 11.3178 9.41575 11.7748C9.35239 11.9974 9.35021 12.1973 9.45726 12.3985C9.55515 12.5825 9.48392 12.8087 9.62681 12.9918C9.89031 13.3284 10.1931 13.5869 10.6069 13.6846C10.9561 13.7668 11.3839 13.516 11.5325 13.144C11.6343 12.8891 11.5014 12.5257 11.2445 12.3654C11.1475 12.3045 11.0299 12.2886 10.953 12.1818C10.5799 11.664 10.8224 11.1716 11.3804 10.9703C11.9353 10.77 12.4165 10.9608 12.8692 11.3137C13.6343 11.9106 13.8934 12.7292 13.8449 13.6755C13.8301 13.9621 13.7151 14.2392 13.6286 14.5177C13.4294 15.1596 12.9898 15.5861 12.4588 15.8769C11.7811 16.2475 11.0457 16.4138 10.2587 16.2643C9.69847 16.158 9.18459 15.9618 8.72009 15.6279C8.46621 15.4453 8.22194 15.2472 7.98247 15.0442C7.88896 14.9647 7.80463 14.862 7.74389 14.7535C7.54856 14.405 7.3694 14.0466 7.17757 13.6959C6.97918 13.3316 6.88436 12.9459 6.90839 12.6011Z" fill="url(#paint1_linear_15349_6165)"/>
<path d="M22.9987 21.9068C23.0162 21.8664 23.055 21.8209 23.048 21.786C22.9506 21.2922 23.2163 20.7966 23.0183 20.2946C22.9257 20.0602 23.0467 19.789 23.0463 19.5346C23.045 18.9681 23.0061 18.4008 23.0279 17.8357C23.0476 17.3278 23.0078 16.8199 23.0515 16.312C23.0839 15.9345 22.7614 15.5448 22.4109 15.4389C22.0767 15.3381 21.7813 15.3653 21.5256 15.6193C21.2984 15.8451 21.2027 16.1299 21.2429 16.4529C21.253 16.5337 21.277 16.6155 21.2687 16.6968C21.1852 17.5022 21.3028 18.3067 21.2726 19.1121C21.2521 19.6677 21.1131 20.2237 21.1922 20.7743C21.2888 21.4448 21.2774 22.1139 21.2604 22.7826C21.2473 23.295 21.2289 23.807 21.2263 24.3199C21.2224 25.0331 21.2075 25.7467 21.2355 26.459C21.2525 26.8878 21.2958 27.3189 21.2634 27.745C21.2281 28.2125 21.2398 28.6786 21.2219 29.1446C21.2128 29.3868 21.1214 29.5994 20.8986 29.7225C20.6923 29.8365 20.5293 29.9964 20.3777 30.1831C20.1369 30.4797 19.9381 30.4638 19.6694 30.1854C19.4845 29.9937 19.2905 29.8115 19.0685 29.6643C18.8745 29.5358 18.7766 29.3409 18.7862 29.1115C18.8238 28.2043 18.7342 27.2999 18.739 26.3931C18.7452 25.2225 18.7111 24.0505 18.753 22.8812C18.7897 21.8546 18.7622 20.8288 18.7841 19.8035C18.7989 19.109 18.7871 18.4157 18.7648 17.723C18.7535 17.3691 18.7412 17.0152 18.7421 16.6609C18.7425 16.4769 18.7972 16.303 18.7543 16.1067C18.6171 15.4748 18.0097 15.2336 17.4591 15.4671C17.1812 15.5848 16.9343 16.0231 16.996 16.3411C17.075 16.7504 16.9994 17.1524 16.9811 17.5554C16.9448 18.3481 16.9308 19.1385 16.9811 19.9307C17.0047 20.3073 16.9671 20.6848 16.9671 21.0605C16.9671 21.5575 16.9903 22.0562 16.9885 22.5541C16.9837 23.7098 17.0047 24.8645 16.9619 26.0206C16.9383 26.6589 16.9029 27.3021 16.9855 27.9422C17.0091 28.1262 17.0239 28.3229 16.933 28.4964C16.8456 28.664 16.6918 28.7631 16.5162 28.709C16.0543 28.5673 15.5788 28.54 15.1065 28.4764C14.8181 28.4373 14.6385 28.1593 14.6726 27.8609C14.746 27.2217 14.7259 26.583 14.6874 25.9421C14.6695 25.6427 14.6747 25.3352 14.7211 25.0399C14.7862 24.622 14.7385 24.2104 14.6975 23.8011C14.6625 23.4513 14.6634 23.1038 14.7132 22.7645C14.7844 22.2757 14.7468 21.786 14.7748 21.2972C14.8159 20.5744 14.8137 19.8471 14.7971 19.1226C14.7801 18.3862 14.8578 17.6462 14.7551 16.9139C14.6739 16.3334 14.7639 15.7569 14.7687 15.1795C14.7718 14.813 14.7927 14.4473 14.7735 14.078C14.7429 13.4847 15.1108 13.1254 15.73 13.104C15.9691 13.0958 16.2063 13.1017 16.4357 13.1858C16.5607 13.2316 16.6783 13.1812 16.7963 13.1512C17.2088 13.0459 17.6243 13.0499 18.0469 13.0654C18.7006 13.0895 19.356 13.0677 20.0106 13.0645C20.2068 13.0636 20.4022 13.0509 20.5962 13.1013C20.6866 13.1249 20.7871 13.139 20.8776 13.1222C21.5575 12.9959 22.2379 13.1285 22.9178 13.1272C23.3727 13.1263 23.8276 13.1308 24.2829 13.1172C24.9401 13.0976 25.3352 13.6378 25.2098 14.3137C25.1433 14.6708 25.2548 15.0319 25.26 15.3935C25.2622 15.5575 25.2626 15.7201 25.2596 15.8841C25.2539 16.2048 25.2264 16.5314 25.2587 16.8463C25.302 17.2651 25.2417 17.6753 25.2312 18.0878C25.2176 18.5997 25.1962 19.1121 25.1988 19.6246C25.2015 20.1297 25.246 20.6353 25.2382 21.14C25.2233 22.1062 25.3382 23.0674 25.3229 24.0328C25.3159 24.463 25.2683 24.8909 25.2797 25.322C25.2854 25.5405 25.3151 25.7563 25.3234 25.9743C25.3374 26.3327 25.2766 26.6861 25.3138 27.0505C25.343 27.338 25.3186 27.6451 25.3212 27.944C25.3247 28.3052 25.1267 28.5105 24.7789 28.5064C24.3612 28.5019 23.9596 28.5932 23.5563 28.6795C23.246 28.7458 23.0502 28.5954 23.038 28.2629C23.0323 28.1048 23.0598 27.9458 23.0612 27.79C23.066 26.9664 23.0524 26.1428 23.0437 25.3193C23.0437 25.2997 23.0245 25.2806 23.0144 25.2611C23.0087 24.1436 23.0039 23.0252 22.9987 21.9068Z" fill="url(#paint2_linear_15349_6165)"/>
<path d="M10.2276 3.75837C10.6401 3.85512 11.1518 3.7411 11.6653 3.76563C12.094 3.78608 12.5292 3.8256 12.9631 3.81197C13.2642 3.80243 13.567 3.86648 13.8698 3.88193C14.4357 3.91009 14.9942 3.75519 15.5614 3.80288C15.7851 3.82151 16.0101 3.84513 16.2343 3.83968C17.155 3.81651 18.0753 3.78517 18.9955 3.7511C19.2075 3.74337 19.4124 3.78517 19.6187 3.81333C19.779 3.83514 19.9342 3.85104 20.0932 3.81015C20.3266 3.74973 20.5568 3.8206 20.7836 3.85285C21.287 3.92417 21.7786 3.83559 22.2742 3.78108C22.3532 3.77245 22.4389 3.75155 22.5119 3.77245C22.8859 3.87784 23.2556 3.82378 23.6266 3.75882C23.6694 3.75155 23.7144 3.74655 23.7568 3.75291C24.4328 3.85876 25.1145 3.70249 25.7887 3.80016C26.2484 3.86694 26.7068 3.92508 27.1709 3.87829C27.6712 3.82741 28.1668 3.85467 28.6658 3.91827C29.0184 3.96324 29.3667 3.81651 29.7268 3.83877C29.968 3.85331 30.1996 3.90918 30.4277 3.97005C30.6877 4.03956 30.8668 4.51608 30.7869 4.87768C30.7183 5.18795 30.7248 5.50457 30.6964 5.81801C30.6776 6.02607 30.6719 6.2423 30.5841 6.42991C30.4054 6.8115 30.0541 6.99184 29.6472 6.90916C29.3951 6.85783 29.1438 6.84648 28.8904 6.84648C28.0912 6.84648 27.2919 6.83421 26.494 6.88872C26.3524 6.89826 26.2205 6.85692 26.0868 6.83148C25.6419 6.74745 25.2067 6.86237 24.7675 6.87237C23.9342 6.89099 23.097 6.93915 22.2676 6.78697C22.1444 6.76425 22.0216 6.78969 21.9001 6.81377C21.419 6.90916 20.9375 6.89236 20.4507 6.86101C19.9377 6.8283 19.4207 6.83784 18.906 6.85284C18.5455 6.86328 18.1998 6.81422 17.8612 6.69157C17.7624 6.65568 17.6619 6.64433 17.5649 6.69657C17.2284 6.87737 16.8732 6.86283 16.5065 6.84148C16.0516 6.81513 15.5919 6.86737 15.1375 6.83694C14.5135 6.79514 13.8925 6.89826 13.2712 6.84693C12.3426 6.77016 11.4158 6.88918 10.4876 6.85374C10.3168 6.84738 10.1429 6.88554 9.96808 6.88236C9.4341 6.87237 9.17934 6.62797 9.09631 6.08058C9.04213 5.72307 8.97833 5.37238 9.06747 5.01033C9.10418 4.86133 9.02684 4.7146 8.99843 4.56832C8.90623 4.09634 9.09151 3.84468 9.54727 3.79244C9.74216 3.77018 9.93531 3.75382 10.2276 3.75837Z" fill="url(#paint3_linear_15349_6165)"/>
<path d="M121.602 12.5C121.709 12.5 121.837 12.5325 121.987 12.5967C122.159 12.661 122.244 12.7571 122.244 12.8856C122.244 13.0354 122.159 13.164 121.987 13.2711C121.837 13.3781 121.666 13.4531 121.474 13.4959C120.81 13.603 120.37 13.8489 120.156 14.2343C119.942 14.6198 119.835 15.1342 119.835 15.7766V26.376C119.835 26.6972 119.792 26.965 119.707 27.1791C119.621 27.3929 119.493 27.4999 119.322 27.5C119.193 27.5 119.043 27.4576 118.871 27.3719C118.7 27.3077 118.54 27.2109 118.39 27.0824C118.24 26.954 118.09 26.8041 117.94 26.6328L110.006 16.8365C109.856 16.6652 109.696 16.526 109.525 16.4189C109.375 16.2906 109.268 16.2263 109.204 16.2261C109.118 16.2261 109.054 16.3011 109.011 16.4509C108.99 16.5794 108.979 16.7936 108.979 17.0933V19.9196C109 20.8189 109.022 21.6648 109.043 22.4571C109.064 23.228 109.096 23.9134 109.139 24.5129C109.182 25.0911 109.321 25.4981 109.557 25.7336C109.814 25.9692 110.221 26.1402 110.777 26.2473C110.949 26.2687 111.12 26.3224 111.292 26.408C111.463 26.4723 111.549 26.5904 111.549 26.7616C111.548 26.8899 111.463 26.9862 111.292 27.0504C111.142 27.1146 111.013 27.1464 110.906 27.1465C110.285 27.1465 109.824 27.1146 109.525 27.0504C109.225 26.9862 108.818 26.9543 108.304 26.9543C107.769 26.9544 107.319 26.9862 106.955 27.0504C106.613 27.1146 106.131 27.1465 105.51 27.1465C105.403 27.1464 105.263 27.1146 105.092 27.0504C104.942 26.9862 104.867 26.8899 104.867 26.7616C104.867 26.5903 104.953 26.4723 105.124 26.408C105.295 26.3224 105.467 26.2687 105.638 26.2473C106.195 26.1402 106.634 25.9798 106.955 25.7657C107.276 25.5301 107.459 25.1125 107.502 24.5129C107.523 24.3202 107.544 23.9562 107.566 23.421C107.587 22.8643 107.608 22.2218 107.63 21.4939C107.651 20.7658 107.662 20.0161 107.662 19.2452C107.683 18.4531 107.694 17.7144 107.694 17.0293C107.716 16.3441 107.726 15.7978 107.726 15.391C107.726 15.1983 107.598 14.9735 107.341 14.7166C107.105 14.4383 106.806 14.181 106.442 13.9455C106.078 13.71 105.713 13.5601 105.349 13.4959C105.156 13.4531 104.974 13.3781 104.803 13.2711C104.653 13.164 104.579 13.0354 104.579 12.8856C104.579 12.7571 104.653 12.661 104.803 12.5967C104.975 12.5325 105.114 12.5 105.221 12.5C105.542 12.5 105.863 12.5106 106.184 12.532C106.505 12.532 106.837 12.5426 107.18 12.564C107.544 12.5855 107.908 12.6073 108.272 12.6287H109.461C109.589 12.6288 109.707 12.6824 109.814 12.7895C109.943 12.8965 110.049 13.0034 110.135 13.1104L117.94 22.4571C117.983 22.5213 118.047 22.6069 118.133 22.7139C118.219 22.821 118.294 22.8747 118.358 22.8747C118.401 22.8747 118.432 22.8427 118.454 22.7786C118.497 22.7144 118.519 22.607 118.519 22.4571L118.39 15.7766C118.368 15.1342 118.219 14.6198 117.94 14.2343C117.683 13.849 117.212 13.603 116.527 13.4959C116.334 13.4531 116.152 13.3781 115.981 13.2711C115.831 13.164 115.756 13.0354 115.756 12.8856C115.756 12.7571 115.831 12.661 115.981 12.5967C116.152 12.5325 116.292 12.5 116.399 12.5C116.827 12.5 117.17 12.5106 117.427 12.532C117.683 12.5534 117.94 12.5859 118.197 12.6287C118.454 12.6501 118.775 12.6608 119.161 12.6608C119.546 12.6608 119.835 12.6501 120.028 12.6287C120.221 12.5859 120.424 12.5534 120.638 12.532C120.874 12.5106 121.195 12.5 121.602 12.5Z" fill="#292524"/>
<path d="M52.2589 12.5C53.2009 12.5 54.0788 12.6286 54.8924 12.8856C55.7275 13.1425 56.4023 13.5601 56.9162 14.1383C57.4301 14.7164 57.6873 15.4768 57.6873 16.4189C57.6873 17.8534 57.259 18.9991 56.4026 19.8556C55.5461 20.6907 54.3894 21.1083 52.9333 21.1083C52.7191 21.1083 52.4619 21.0652 52.1622 20.9796C51.884 20.8725 51.7446 20.7226 51.7446 20.53C51.7446 20.423 51.7771 20.3267 51.8413 20.2411C51.9269 20.1341 52.0555 20.0804 52.2268 20.0804C52.3018 20.0804 52.3742 20.0829 52.4438 20.0882L52.845 20.1366C52.9038 20.1419 52.9545 20.1444 52.9973 20.1444C53.5968 20.1444 54.0894 19.8341 54.4748 19.2132C54.8602 18.5708 55.0531 17.8642 55.0531 17.0933C55.0531 16.087 54.7321 15.2198 54.0899 14.4918C53.4689 13.7423 52.6762 13.3672 51.7126 13.3672C51.3058 13.3672 50.963 13.4421 50.6846 13.592C50.4278 13.7205 50.2997 13.9565 50.2997 14.299V24.5129C50.2997 25.0911 50.5138 25.4981 50.9421 25.7336C51.3703 25.9691 51.863 26.1402 52.4196 26.2473C52.5908 26.2687 52.762 26.3224 52.9333 26.408C53.1046 26.4723 53.1901 26.5903 53.1901 26.7616C53.19 26.8899 53.1045 26.9862 52.9333 27.0504C52.7834 27.1146 52.6548 27.1465 52.5477 27.1465C52.141 27.1465 51.7556 27.1252 51.3917 27.0824C51.0491 27.061 50.6957 27.0398 50.3318 27.0184C49.9677 26.9756 49.5607 26.9543 49.111 26.9543C48.6614 26.9543 48.2544 26.9756 47.8903 27.0184C47.5264 27.0398 47.1624 27.061 46.7984 27.0824C46.4558 27.1252 46.0705 27.1465 45.6424 27.1465C45.5354 27.1465 45.396 27.1146 45.2248 27.0504C45.075 26.9862 45.0001 26.8899 45 26.7616C45 26.5903 45.0855 26.4723 45.2568 26.408C45.428 26.3224 45.5992 26.2687 45.7705 26.2473C46.3271 26.1402 46.8197 25.9691 47.248 25.7336C47.6762 25.4981 47.8903 25.0911 47.8903 24.5129V15.7439C47.8903 15.0802 47.7511 14.5663 47.4728 14.2023C47.1944 13.8384 46.7124 13.603 46.0273 13.4959C45.8347 13.4531 45.6528 13.3781 45.4816 13.2711C45.3317 13.164 45.2568 13.0354 45.2568 12.8856C45.2568 12.7571 45.3317 12.661 45.4816 12.5967C45.6529 12.5325 45.7921 12.5 45.8992 12.5C46.3274 12.5 46.6914 12.5106 46.9912 12.532C47.2909 12.5534 47.5906 12.5859 47.8903 12.6287C48.1901 12.6501 48.5222 12.6608 48.8863 12.6608C49.186 12.6608 49.5075 12.6501 49.8501 12.6287C50.2141 12.5859 50.5994 12.5534 51.0061 12.532C51.413 12.5106 51.8306 12.5 52.2589 12.5Z" fill="#292524"/>
<path d="M73.8022 12.5C73.9092 12.5 74.0379 12.5325 74.1877 12.5967C74.359 12.661 74.4452 12.7571 74.4452 12.8856C74.4452 13.0354 74.359 13.164 74.1877 13.2711C74.0379 13.3781 73.8667 13.4531 73.6741 13.4959C73.0103 13.603 72.5284 13.8383 72.2286 14.2023C71.9503 14.5663 71.8111 15.0802 71.811 15.7439V24.545C71.811 25.1015 71.886 25.4762 72.0358 25.6689C72.1857 25.8617 72.4966 25.9584 72.9677 25.9584H76.1148C76.5645 25.9584 76.9397 25.8729 77.2395 25.7016C77.5607 25.5303 77.8497 25.2731 78.1066 24.9305C78.3636 24.5666 78.6202 24.1275 78.8771 23.6137C78.9199 23.5495 78.9842 23.4527 79.0699 23.3243C79.1769 23.1958 79.3056 23.1315 79.4554 23.1315C79.6052 23.1315 79.6908 23.196 79.7123 23.3243C79.7551 23.4313 79.7769 23.5387 79.7769 23.6458C79.7769 23.8171 79.7445 24.0418 79.6802 24.3202C79.616 24.5985 79.5305 24.8876 79.4234 25.1873C79.3378 25.487 79.2522 25.7762 79.1666 26.0545C79.081 26.3327 79.0166 26.5576 78.9738 26.7289C78.9524 26.8145 78.8775 26.9007 78.749 26.9864C78.642 27.072 78.5346 27.1144 78.4275 27.1144C77.6353 27.1144 76.8642 27.1038 76.1148 27.0824C75.3869 27.061 74.6801 27.0504 73.9949 27.0504C73.3312 27.029 72.6887 27.0078 72.0678 26.9864C71.4469 26.965 70.8581 26.9543 70.3015 26.9543C69.7234 26.9758 69.2095 27.0076 68.7599 27.0504C68.3102 27.1146 67.7746 27.1465 67.1537 27.1465C67.0466 27.1465 66.9074 27.1146 66.7361 27.0504C66.5863 26.9862 66.5114 26.8899 66.5113 26.7616C66.5113 26.5903 66.5969 26.4723 66.7681 26.408C66.9394 26.3224 67.1111 26.2687 67.2824 26.2473C67.839 26.1402 68.3317 25.9691 68.7599 25.7336C69.1881 25.4981 69.4023 25.091 69.4023 24.5129V15.7439C69.4022 15.0802 69.263 14.5663 68.9847 14.2023C68.7064 13.8383 68.2244 13.603 67.5392 13.4959C67.3465 13.4531 67.1642 13.3782 66.9929 13.2711C66.843 13.1641 66.7681 13.0354 66.7681 12.8856C66.7681 12.7571 66.8432 12.661 66.9929 12.5967C67.1641 12.5325 67.3034 12.5 67.4105 12.5C67.8387 12.5 68.2139 12.5106 68.5351 12.532C68.8776 12.5534 69.2093 12.5859 69.5304 12.6287C69.8729 12.6501 70.237 12.6608 70.6223 12.6608C71.0077 12.6608 71.3612 12.6501 71.6823 12.6287C72.0035 12.5859 72.3356 12.5534 72.6782 12.532C73.0207 12.5106 73.3954 12.5 73.8022 12.5Z" fill="#292524"/>
<path d="M95.3141 12.5C95.4212 12.5 95.5498 12.5325 95.6997 12.5967C95.8708 12.661 95.9565 12.7571 95.9565 12.8856C95.9565 13.0354 95.8709 13.1641 95.6997 13.2711C95.5498 13.3782 95.3781 13.4531 95.1854 13.4959C94.7358 13.5602 94.3717 13.6888 94.0934 13.8815C93.8365 14.0742 93.6435 14.3202 93.5151 14.6199C93.3866 14.9196 93.3223 15.2943 93.3223 15.7439V24.5129C93.3223 25.091 93.5365 25.4981 93.9647 25.7336C94.3929 25.9691 94.8856 26.1402 95.4422 26.2473C95.6135 26.2687 95.7852 26.3224 95.9565 26.408C96.1277 26.4723 96.2133 26.5903 96.2133 26.7616C96.2132 26.8899 96.1276 26.9862 95.9565 27.0504C95.8066 27.1146 95.678 27.1465 95.5709 27.1465C95.1642 27.1465 94.7789 27.1252 94.4149 27.0824C94.0724 27.061 93.7189 27.0398 93.355 27.0184C92.991 26.9756 92.5839 26.9543 92.1343 26.9543C91.6846 26.9543 91.2776 26.9756 90.9136 27.0184C90.5496 27.0398 90.1856 27.061 89.8216 27.0824C89.479 27.1253 89.0932 27.1465 88.6649 27.1465C88.5579 27.1464 88.4185 27.1146 88.2474 27.0504C88.0977 26.9862 88.0227 26.8899 88.0226 26.7616C88.0226 26.5903 88.1087 26.4723 88.28 26.408C88.4513 26.3224 88.6224 26.2687 88.7937 26.2473C89.3504 26.1402 89.8429 25.9692 90.2712 25.7336C90.6995 25.4981 90.9136 25.0911 90.9136 24.5129V15.7439C90.9135 15.0802 90.7743 14.5663 90.496 14.2023C90.2176 13.8383 89.7357 13.603 89.0505 13.4959C88.8579 13.4531 88.676 13.3781 88.5048 13.2711C88.355 13.164 88.28 13.0354 88.28 12.8856C88.28 12.7571 88.3549 12.661 88.5048 12.5967C88.6761 12.5325 88.8154 12.5 88.9224 12.5C89.3506 12.5 89.7253 12.5106 90.0464 12.532C90.389 12.5534 90.7211 12.5859 91.0423 12.6287C91.3848 12.6501 91.7489 12.6608 92.1343 12.6608C92.5197 12.6608 92.873 12.6501 93.1942 12.6287C93.5154 12.5859 93.8475 12.5534 94.1901 12.532C94.5326 12.5106 94.9074 12.5 95.3141 12.5Z" fill="#292524"/>
<path d="M144.904 12.5C145.011 12.5001 145.139 12.5326 145.289 12.5967C145.46 12.661 145.547 12.7571 145.547 12.8856C145.547 13.0354 145.46 13.164 145.289 13.2711C145.139 13.3781 144.968 13.4531 144.775 13.4959C144.047 13.6886 143.48 13.8703 143.073 14.0416C142.666 14.2129 142.28 14.588 141.916 15.1662L139.7 19.1492C139.422 19.663 139.176 20.1232 138.961 20.53C138.769 20.9153 138.673 21.29 138.673 21.654V24.5129C138.673 24.8982 138.769 25.2086 138.961 25.4441C139.154 25.6583 139.411 25.83 139.733 25.9584C140.075 26.0655 140.428 26.1616 140.792 26.2473C140.964 26.2687 141.135 26.3224 141.307 26.408C141.478 26.4723 141.564 26.5904 141.564 26.7616C141.563 26.8899 141.478 26.9862 141.307 27.0504C141.157 27.1146 141.028 27.1464 140.921 27.1465C140.514 27.1465 140.129 27.1253 139.765 27.0824C139.422 27.061 139.069 27.0398 138.705 27.0184C138.341 26.9756 137.934 26.9543 137.484 26.9543C137.034 26.9544 136.628 26.9756 136.264 27.0184C135.9 27.0398 135.536 27.061 135.172 27.0824C134.829 27.1253 134.443 27.1465 134.015 27.1465C133.908 27.1465 133.769 27.1146 133.598 27.0504C133.448 26.9862 133.373 26.8899 133.373 26.7616C133.373 26.5903 133.458 26.4723 133.63 26.408C133.801 26.3224 133.973 26.2687 134.144 26.2473C134.701 26.1402 135.193 25.9692 135.621 25.7336C136.05 25.4981 136.264 25.091 136.264 24.5129V22.4251C136.264 22.1253 136.242 21.8575 136.199 21.6219C136.156 21.3651 136.103 21.1508 136.039 20.9796C135.996 20.8085 135.942 20.691 135.878 20.6267L133.084 15.8726C132.763 15.3159 132.484 14.8983 132.249 14.6199C132.035 14.3415 131.788 14.1274 131.51 13.9775C131.231 13.8277 130.857 13.6778 130.386 13.5279C130.193 13.4637 130.011 13.3888 129.839 13.3031C129.69 13.1961 129.615 13.0674 129.615 12.9176C129.615 12.7892 129.69 12.693 129.839 12.6287C130.011 12.5645 130.15 12.5321 130.257 12.532C130.878 12.532 131.36 12.5645 131.703 12.6287C132.067 12.6716 132.538 12.6928 133.116 12.6928C133.673 12.6928 134.143 12.6715 134.529 12.6287C134.914 12.5645 135.418 12.532 136.039 12.532C136.146 12.5321 136.274 12.5646 136.424 12.6287C136.595 12.693 136.681 12.7891 136.681 12.9176C136.681 13.0675 136.595 13.1961 136.424 13.3031C136.253 13.4101 136.082 13.4851 135.91 13.5279C135.461 13.6136 135.139 13.7528 134.946 13.9455C134.754 14.1382 134.807 14.481 135.107 14.9734L137.901 19.6628C137.987 19.8124 138.041 19.8873 138.062 19.8876C138.105 19.8876 138.169 19.8127 138.255 19.6628L140.856 14.6839C141.028 14.3842 141.017 14.1382 140.824 13.9455C140.653 13.7528 140.45 13.603 140.214 13.4959C140.022 13.4103 139.84 13.3247 139.668 13.2391C139.519 13.1534 139.444 13.0354 139.444 12.8856C139.444 12.7571 139.519 12.661 139.668 12.5967C139.84 12.5325 139.979 12.5 140.086 12.5C140.514 12.5 140.814 12.5106 140.985 12.532C141.178 12.5534 141.36 12.5859 141.532 12.6287C141.724 12.6501 142.013 12.6608 142.399 12.6608C142.784 12.6608 143.073 12.6501 143.266 12.6287C143.48 12.5859 143.705 12.5534 143.94 12.532C144.176 12.5106 144.497 12.5 144.904 12.5Z" fill="#292524"/>
</g>
<defs>
<linearGradient id="paint0_linear_15349_6165" x1="20" y1="3.75" x2="20" y2="36.25" gradientUnits="userSpaceOnUse">
<stop stop-color="#CF4233"/>
<stop offset="1" stop-color="#902E24"/>
</linearGradient>
<linearGradient id="paint1_linear_15349_6165" x1="20" y1="3.75" x2="20" y2="36.25" gradientUnits="userSpaceOnUse">
<stop stop-color="#CF4233"/>
<stop offset="1" stop-color="#902E24"/>
</linearGradient>
<linearGradient id="paint2_linear_15349_6165" x1="20" y1="3.75" x2="20" y2="36.25" gradientUnits="userSpaceOnUse">
<stop stop-color="#CF4233"/>
<stop offset="1" stop-color="#902E24"/>
</linearGradient>
<linearGradient id="paint3_linear_15349_6165" x1="20" y1="3.75" x2="20" y2="36.25" gradientUnits="userSpaceOnUse">
<stop stop-color="#CF4233"/>
<stop offset="1" stop-color="#902E24"/>
</linearGradient>
<clipPath id="clip0_15349_6165">
<rect width="145.547" height="40" fill="white"/>
</clipPath>
</defs>
</svg>
