<svg width="32" height="32" viewBox="0 0 32 32" fill="none" xmlns="http://www.w3.org/2000/svg">
<mask id="path-1-inside-1_15350_6740" fill="white">
<path d="M0 12.8C0 8.31958 0 6.07937 0.871948 4.36808C1.63893 2.86278 2.86278 1.63893 4.36808 0.871948C6.07937 0 8.31958 0 12.8 0H19.2C23.6804 0 25.9206 0 27.6319 0.871948C29.1372 1.63893 30.3611 2.86278 31.1281 4.36808C32 6.07937 32 8.31958 32 12.8V19.2C32 23.6804 32 25.9206 31.1281 27.6319C30.3611 29.1372 29.1372 30.3611 27.6319 31.1281C25.9206 32 23.6804 32 19.2 32H12.8C8.31958 32 6.07937 32 4.36808 31.1281C2.86278 30.3611 1.63893 29.1372 0.871948 27.6319C0 25.9206 0 23.6804 0 19.2V12.8Z"/>
</mask>
<path d="M0 12.8C0 8.31958 0 6.07937 0.871948 4.36808C1.63893 2.86278 2.86278 1.63893 4.36808 0.871948C6.07937 0 8.31958 0 12.8 0H19.2C23.6804 0 25.9206 0 27.6319 0.871948C29.1372 1.63893 30.3611 2.86278 31.1281 4.36808C32 6.07937 32 8.31958 32 12.8V19.2C32 23.6804 32 25.9206 31.1281 27.6319C30.3611 29.1372 29.1372 30.3611 27.6319 31.1281C25.9206 32 23.6804 32 19.2 32H12.8C8.31958 32 6.07937 32 4.36808 31.1281C2.86278 30.3611 1.63893 29.1372 0.871948 27.6319C0 25.9206 0 23.6804 0 19.2V12.8Z" fill="#C0392B"/>
<path d="M4.36808 31.1281L4.59507 30.6825L4.36808 31.1281ZM31.1281 27.6319L31.5736 27.8589L31.1281 27.6319ZM27.6319 31.1281L27.8589 31.5736L27.6319 31.1281ZM27.6319 0.871948L27.4049 1.31745L27.6319 0.871948ZM31.1281 4.36808L30.6825 4.59507L31.1281 4.36808ZM4.36808 0.871948L4.14108 0.426445L4.36808 0.871948ZM0.871948 4.36808L0.426445 4.14108L0.871948 4.36808ZM12.8 0V0.5H19.2V0V-0.5H12.8V0ZM32 12.8H31.5V19.2H32H32.5V12.8H32ZM19.2 32V31.5H12.8V32V32.5H19.2V32ZM0 19.2H0.5V12.8H0H-0.5V19.2H0ZM12.8 32V31.5C10.5515 31.5 8.89526 31.4996 7.58633 31.3927C6.28324 31.2862 5.36848 31.0766 4.59507 30.6825L4.36808 31.1281L4.14108 31.5736C5.07896 32.0514 6.13996 32.2778 7.5049 32.3893C8.864 32.5004 10.568 32.5 12.8 32.5V32ZM0 19.2H-0.5C-0.5 21.432 -0.500389 23.136 -0.389346 24.4951C-0.277826 25.86 -0.0514296 26.921 0.426445 27.8589L0.871948 27.6319L1.31745 27.4049C0.923378 26.6315 0.7138 25.7168 0.607333 24.4137C0.500389 23.1047 0.5 21.4485 0.5 19.2H0ZM4.36808 31.1281L4.59507 30.6825C3.18386 29.9635 2.0365 28.8161 1.31745 27.4049L0.871948 27.6319L0.426445 27.8589C1.24137 29.4583 2.5417 30.7586 4.14108 31.5736L4.36808 31.1281ZM32 19.2H31.5C31.5 21.4485 31.4996 23.1047 31.3927 24.4137C31.2862 25.7168 31.0766 26.6315 30.6825 27.4049L31.1281 27.6319L31.5736 27.8589C32.0514 26.921 32.2778 25.86 32.3893 24.4951C32.5004 23.136 32.5 21.432 32.5 19.2H32ZM19.2 32V32.5C21.432 32.5 23.136 32.5004 24.4951 32.3893C25.86 32.2778 26.921 32.0514 27.8589 31.5736L27.6319 31.1281L27.4049 30.6825C26.6315 31.0766 25.7168 31.2862 24.4137 31.3927C23.1047 31.4996 21.4485 31.5 19.2 31.5V32ZM31.1281 27.6319L30.6825 27.4049C29.9635 28.8161 28.8161 29.9635 27.4049 30.6825L27.6319 31.1281L27.8589 31.5736C29.4583 30.7586 30.7586 29.4583 31.5736 27.8589L31.1281 27.6319ZM19.2 0V0.5C21.4485 0.5 23.1047 0.500389 24.4137 0.607333C25.7168 0.7138 26.6315 0.923377 27.4049 1.31745L27.6319 0.871948L27.8589 0.426445C26.921 -0.0514296 25.86 -0.277826 24.4951 -0.389346C23.136 -0.500389 21.432 -0.5 19.2 -0.5V0ZM32 12.8H32.5C32.5 10.568 32.5004 8.864 32.3893 7.5049C32.2778 6.13996 32.0514 5.07896 31.5736 4.14108L31.1281 4.36808L30.6825 4.59507C31.0766 5.36848 31.2862 6.28324 31.3927 7.58633C31.4996 8.89526 31.5 10.5515 31.5 12.8H32ZM27.6319 0.871948L27.4049 1.31745C28.8161 2.0365 29.9635 3.18386 30.6825 4.59507L31.1281 4.36808L31.5736 4.14108C30.7586 2.5417 29.4583 1.24137 27.8589 0.426445L27.6319 0.871948ZM12.8 0V-0.5C10.568 -0.5 8.864 -0.500389 7.5049 -0.389346C6.13996 -0.277826 5.07896 -0.0514296 4.14108 0.426445L4.36808 0.871948L4.59507 1.31745C5.36848 0.923378 6.28324 0.7138 7.58633 0.607333C8.89526 0.500389 10.5515 0.5 12.8 0.5V0ZM0 12.8H0.5C0.5 10.5515 0.500389 8.89526 0.607333 7.58633C0.7138 6.28324 0.923377 5.36848 1.31745 4.59507L0.871948 4.36808L0.426445 4.14108C-0.0514296 5.07896 -0.277826 6.13996 -0.389346 7.5049C-0.500389 8.864 -0.5 10.568 -0.5 12.8H0ZM4.36808 0.871948L4.14108 0.426445C2.5417 1.24137 1.24137 2.5417 0.426445 4.14108L0.871948 4.36808L1.31745 4.59507C2.0365 3.18386 3.18386 2.0365 4.59507 1.31745L4.36808 0.871948Z" fill="white" fill-opacity="0.3" mask="url(#path-1-inside-1_15350_6740)"/>
<path d="M7.99441 24.5997C8.00207 24.1696 8.07798 23.7184 8.10162 23.2639C8.11227 23.0539 8.09929 22.8422 8.08996 22.6319C8.08264 22.4625 8.10828 22.3001 8.1692 22.1431C8.20882 22.0408 8.22547 21.9281 8.1945 21.8315C8.09929 21.5363 8.17753 21.2481 8.20116 20.9566C8.24977 20.3551 8.34366 19.756 8.28273 19.1491C8.26142 18.9365 8.29905 18.7278 8.35731 18.5232C8.37895 18.447 8.38594 18.3689 8.36929 18.2914C8.28806 17.9167 8.36796 17.5493 8.42423 17.1827C8.47051 16.8808 8.5058 16.5846 8.4745 16.2746C8.42856 15.8194 8.47051 15.3635 8.68392 14.9475C8.82774 14.6674 9.04615 14.4638 9.36743 14.3913C9.51725 14.3574 9.66008 14.2937 9.80923 14.2561C10.2837 14.137 10.6605 14.4182 10.6868 14.9314C10.7208 15.5886 10.7311 16.2464 10.7048 16.9039C10.6875 17.3316 10.7271 17.766 10.6446 18.1857C10.572 18.5554 10.6928 18.9173 10.6319 19.2793C10.591 19.5215 10.6036 19.7607 10.6076 20.0046C10.6189 20.7003 10.6106 21.3977 10.5736 22.0925C10.5593 22.3618 10.573 22.6352 10.5131 22.9049C10.4538 23.1726 10.6735 23.3971 10.9369 23.3541C11.4223 23.275 11.8974 23.3028 12.3785 23.4108C12.7091 23.4853 13.051 23.5084 13.3786 23.6074C14.0618 23.8144 14.6874 24.1193 15.2037 24.6322C15.3652 24.7926 15.5057 24.9697 15.6589 25.1361C15.7145 25.1965 15.7584 25.2649 15.788 25.3471C15.8556 25.5346 16.0644 25.5658 16.1752 25.4001C16.4206 25.0338 16.7056 24.7003 17.0415 24.4219C17.3199 24.1908 17.6208 23.973 17.9644 23.8513C18.2747 23.7409 18.5747 23.6027 18.9023 23.5322C19.2289 23.4621 19.5592 23.4222 19.8868 23.3628C20.2473 23.2978 20.6102 23.2991 20.9748 23.3528C21.3484 23.4078 21.5425 23.1861 21.4988 22.81C21.4562 22.441 21.4193 22.0683 21.4206 21.6976C21.4229 21.1951 21.387 20.6943 21.3737 20.1931C21.3683 19.9958 21.3214 19.7946 21.3397 19.5963C21.4129 18.7949 21.2908 17.9978 21.2997 17.1971C21.3074 16.5232 21.2964 15.8472 21.2911 15.1723C21.2888 14.8962 21.3151 14.6171 21.5328 14.4175C21.6993 14.2645 21.891 14.2129 22.1367 14.2474C22.3778 14.2813 22.5912 14.3658 22.8033 14.4594C23.0283 14.5584 23.2018 14.7023 23.31 14.9599C23.4971 15.4051 23.5371 15.8623 23.5267 16.3283C23.5161 16.8063 23.5327 17.2776 23.6459 17.7442C23.6702 17.8449 23.6719 17.9596 23.6509 18.0609C23.581 18.3964 23.6469 18.7224 23.7099 19.0465C23.7398 19.2005 23.7108 19.345 23.7039 19.4933C23.6835 19.9267 23.7518 20.3568 23.7468 20.7889C23.7441 21.0395 23.7738 21.2827 23.8244 21.5259C23.8953 21.8677 23.86 22.2156 23.8667 22.5598C23.8776 23.1109 23.9179 23.6584 23.9712 24.2062C23.9915 24.4145 24.0015 24.6269 23.9532 24.8375C23.9239 24.9653 23.9116 25.0938 23.9529 25.2307C24.0015 25.3914 23.9096 25.537 23.7938 25.6272C23.6676 25.7258 23.5191 25.7899 23.346 25.8194C22.9974 25.8788 22.6621 25.8801 22.3125 25.814C22.0791 25.7698 21.8288 25.8003 21.5921 25.8714C21.5008 25.8989 21.401 25.9117 21.3124 25.8872C20.8696 25.7664 20.4388 25.9489 20 25.9294C19.6268 25.913 19.2715 26.0391 18.9143 26.1257C18.6819 26.182 18.4645 26.2984 18.2368 26.3779C17.9255 26.4866 17.6784 26.7161 17.3741 26.8369C17.3538 26.8449 17.3338 26.8563 17.3175 26.8707C16.9946 27.1545 16.637 27.3977 16.3407 27.7124C16.3034 27.752 16.2761 27.801 16.2432 27.8449C16.1007 28.0338 15.8809 28.0593 15.7421 27.8707C15.5733 27.6416 15.3785 27.4353 15.1665 27.2582C14.992 27.1126 14.8398 26.9294 14.6211 26.8362C14.3321 26.7134 14.0917 26.4967 13.7864 26.4024C13.2275 26.2303 12.7101 25.9405 12.0948 25.9281C11.6217 25.9187 11.147 25.8868 10.6725 25.8684C10.3596 25.856 10.0486 25.7916 9.73199 25.805C9.57684 25.8114 9.42436 25.8275 9.27321 25.8623C9.23059 25.8721 9.18631 25.8781 9.1427 25.8788C8.89833 25.8835 8.66361 25.8161 8.42989 25.762C8.20316 25.7097 8.09196 25.492 8.04801 25.2528C8.01006 25.0418 8.01539 24.8342 7.99441 24.5997Z" fill="white"/>
<path d="M6.02544 10.5362C6.03243 10.338 6.01945 10.1947 6.00613 10.0501C5.9735 9.7016 6.07472 9.37788 6.22387 9.06926C6.30577 8.89985 6.35105 8.71803 6.43928 8.54896C6.62905 8.18532 6.8398 7.84785 7.17572 7.60062C7.29025 7.51642 7.42709 7.48723 7.54328 7.41511C7.94713 7.16352 8.38161 6.99579 8.85171 6.93071C8.99321 6.91125 9.14169 6.90723 9.28286 6.92568C9.64709 6.97331 10.012 6.93641 10.3765 6.95117C11.1503 6.9827 11.9257 6.97935 12.6988 7.02296C13.053 7.04309 13.4069 7.05718 13.7581 7.03705C14.0768 7.01893 14.3947 6.98572 14.7147 6.97969C15.0303 6.97365 15.3432 7.0025 15.6555 7.03906C15.8333 7.05986 16.0068 7.01155 16.1829 7.0129C16.4975 7.01524 16.8118 7.02631 17.1264 7.04409C17.523 7.06657 17.9155 6.95889 18.3153 6.98203C19.1004 7.02699 19.8894 6.97398 20.6718 7.02464C21.1293 7.05416 21.5744 7.00619 22.0189 6.96392C22.493 6.91897 22.9474 6.98002 23.4102 7.04409C24.0368 7.13098 24.5695 7.4084 25.0456 7.80961C25.1927 7.9334 25.3139 8.09341 25.3978 8.26449C25.6136 8.70462 25.8663 9.13501 25.9159 9.63786C25.9362 9.84216 26.0071 10.0434 25.9994 10.244C25.9828 10.6687 25.9382 11.0951 25.6828 11.4587C25.6389 11.5215 25.6166 11.5922 25.6069 11.6583C25.5616 11.9602 25.2949 12.0887 25.1248 12.2883C24.8062 12.6624 24.4386 12.973 23.9289 13.0599C23.82 13.0783 23.7322 13.1739 23.6183 13.2092C23.4611 13.2578 23.3093 13.2833 23.1489 13.2343C23.1079 13.2219 23.06 13.2172 23.018 13.2246C22.4194 13.3286 21.9243 13.0877 21.4452 12.7667C21.0411 12.496 20.8806 12.085 20.7597 11.6459C20.6046 11.0837 20.6848 10.55 21.0021 10.0662C21.3054 9.60398 21.7266 9.30274 22.2919 9.27221C22.6358 9.25343 22.9328 9.49026 23.0283 9.81633C23.0736 9.97131 22.9524 10.2199 22.7893 10.3074C22.4933 10.4658 22.3758 10.713 22.4767 10.9646C22.5959 11.2622 22.9178 11.3769 23.2387 11.3262C23.5614 11.2752 23.7768 11.086 23.9186 10.8455C24.0684 10.5916 24.2236 10.2991 24.0724 9.97198C24.0398 9.90187 24.0181 9.82538 24.0398 9.74487C24.0538 9.69254 24.0321 9.65128 24.0075 9.60465C23.8936 9.38929 23.7718 9.18365 23.5973 9.0072C23.5091 8.91797 23.3936 8.90589 23.2963 8.84786C23.1352 8.75192 22.9644 8.6553 22.767 8.6335C22.5865 8.61337 22.4084 8.56875 22.2276 8.55903C21.8697 8.53957 21.5338 8.65094 21.1962 8.75527C20.8639 8.85792 20.5899 9.0545 20.3213 9.26416C20.268 9.30576 20.2214 9.35541 20.1961 9.4178C20.0729 9.7234 19.8278 9.82941 19.5225 9.86933C19.0258 9.93474 18.5284 9.89684 18.0317 9.89851C16.3301 9.90388 14.6284 9.90455 12.9268 9.89482C12.7214 9.89382 12.511 9.88141 12.3046 9.83645C12.0998 9.79184 11.9417 9.68751 11.8528 9.50469C11.7213 9.23397 11.4932 9.081 11.2442 8.94849C10.8806 8.75493 10.4927 8.63115 10.0882 8.56305C9.75862 8.5077 9.44167 8.6023 9.12705 8.67946C8.87135 8.74252 8.63464 8.8435 8.42855 9.02934C8.15555 9.27523 8.03502 9.58855 7.93581 9.92602C7.88754 10.0904 7.88587 10.238 7.96744 10.3866C8.04202 10.5225 7.98775 10.6895 8.09662 10.8247C8.29738 11.0733 8.5281 11.2642 8.84339 11.3363C9.1094 11.397 9.43534 11.2118 9.54854 10.9371C9.62611 10.7489 9.5249 10.4805 9.32914 10.3621C9.25522 10.3172 9.16567 10.3054 9.10707 10.2266C8.82274 9.84417 9.00752 9.48053 9.43268 9.33192C9.8555 9.18399 10.2221 9.32488 10.567 9.58553C11.1499 10.0263 11.3474 10.6308 11.3104 11.3296C11.2991 11.5413 11.2115 11.7459 11.1456 11.9515C10.9938 12.4255 10.6589 12.7405 10.2544 12.9552C9.73798 13.229 9.17765 13.3517 8.57804 13.2414C8.15122 13.1629 7.75969 13.0179 7.40578 12.7714C7.21235 12.6365 7.02624 12.4903 6.84379 12.3403C6.77254 12.2816 6.70829 12.2058 6.66201 12.1256C6.51319 11.8683 6.37669 11.6037 6.23053 11.3447C6.07938 11.0756 6.00713 10.7908 6.02544 10.5362Z" fill="white"/>
<path d="M18.2847 17.4081C18.298 17.3782 18.3277 17.3447 18.3223 17.3189C18.2481 16.9542 18.4505 16.5882 18.2997 16.2176C18.2291 16.0445 18.3213 15.8442 18.321 15.6563C18.32 15.238 18.2904 14.819 18.307 14.4017C18.322 14.0267 18.2917 13.6516 18.325 13.2766C18.3496 12.9978 18.1039 12.71 17.8369 12.6318C17.5822 12.5574 17.3572 12.5775 17.1624 12.765C16.9893 12.9317 16.9163 13.1421 16.947 13.3806C16.9546 13.4403 16.9729 13.5007 16.9666 13.5607C16.903 14.1555 16.9926 14.7496 16.9696 15.3444C16.954 15.7546 16.8481 16.1652 16.9084 16.5718C16.9819 17.0669 16.9733 17.5611 16.9603 18.0549C16.9503 18.4333 16.9363 18.8113 16.9343 19.1901C16.9313 19.7167 16.92 20.2437 16.9413 20.7697C16.9543 21.0864 16.9873 21.4048 16.9626 21.7194C16.9357 22.0646 16.9446 22.4088 16.931 22.753C16.924 22.9318 16.8544 23.0888 16.6846 23.1797C16.5275 23.2639 16.4033 23.382 16.2878 23.5198C16.1043 23.7389 15.9528 23.7271 15.7481 23.5215C15.6073 23.3799 15.4594 23.2454 15.2903 23.1367C15.1425 23.0418 15.0679 22.8979 15.0752 22.7285C15.1039 22.0586 15.0356 21.3907 15.0393 20.7211C15.0439 19.8566 15.018 18.9911 15.0499 18.1277C15.0779 17.3695 15.0569 16.6121 15.0736 15.8549C15.0849 15.342 15.0759 14.8301 15.0589 14.3185C15.0503 14.0572 15.0409 13.7959 15.0416 13.5342C15.0419 13.3984 15.0836 13.2699 15.0509 13.125C14.9464 12.6583 14.4836 12.4802 14.0641 12.6526C13.8524 12.7395 13.6643 13.0632 13.7112 13.2981C13.7715 13.6003 13.7139 13.8972 13.6999 14.1947C13.6722 14.7801 13.6616 15.3638 13.6999 15.9488C13.7179 16.2269 13.6892 16.5057 13.6892 16.7831C13.6892 17.1501 13.7069 17.5185 13.7055 17.8861C13.7019 18.7395 13.7179 19.5923 13.6852 20.446C13.6673 20.9173 13.6403 21.3923 13.7032 21.865C13.7212 22.0009 13.7325 22.1461 13.6633 22.2743C13.5967 22.398 13.4795 22.4712 13.3456 22.4313C12.9937 22.3266 12.6315 22.3065 12.2716 22.2595C12.0519 22.2307 11.915 22.0254 11.941 21.805C11.9969 21.333 11.9816 20.8613 11.9523 20.388C11.9387 20.1669 11.9427 19.9398 11.978 19.7218C12.0276 19.4131 11.9913 19.1092 11.96 18.807C11.9333 18.5487 11.934 18.292 11.972 18.0414C12.0262 17.6805 11.9976 17.3189 12.0189 16.9579C12.0502 16.4242 12.0485 15.8871 12.0359 15.3521C12.0229 14.8083 12.0822 14.2618 12.0039 13.7211C11.942 13.2923 12.0106 12.8667 12.0142 12.4403C12.0166 12.1696 12.0326 11.8995 12.0179 11.6268C11.9946 11.1887 12.2749 10.9233 12.7467 10.9076C12.9288 10.9015 13.1096 10.9059 13.2844 10.968C13.3796 11.0018 13.4692 10.9646 13.5591 10.9425C13.8733 10.8646 14.19 10.8677 14.5119 10.8791C15.01 10.8968 15.5094 10.8807 16.0081 10.8784C16.1576 10.8777 16.3064 10.8683 16.4542 10.9056C16.5232 10.923 16.5997 10.9334 16.6686 10.921C17.1867 10.8277 17.7051 10.9257 18.2231 10.9247C18.5697 10.924 18.9163 10.9274 19.2632 10.9173C19.7639 10.9029 20.0649 11.3017 19.9693 11.8009C19.9187 12.0646 20.0036 12.3313 20.0076 12.5983C20.0093 12.7194 20.0096 12.8395 20.0073 12.9606C20.003 13.1974 19.982 13.4386 20.0066 13.6711C20.0396 13.9804 19.9936 14.2833 19.9857 14.5879C19.9753 14.966 19.959 15.3444 19.961 15.7227C19.963 16.0958 19.997 16.4691 19.991 16.8418C19.9797 17.5554 20.0672 18.2652 20.0556 18.978C20.0502 19.2957 20.014 19.6117 20.0226 19.9301C20.0269 20.0914 20.0496 20.2508 20.0559 20.4118C20.0666 20.6765 20.0203 20.9375 20.0486 21.2065C20.0709 21.4188 20.0522 21.6456 20.0542 21.8663C20.0569 22.133 19.9061 22.2847 19.6411 22.2816C19.3228 22.2783 19.0168 22.3457 18.7095 22.4095C18.4731 22.4584 18.324 22.3474 18.3147 22.1018C18.3103 21.9851 18.3313 21.8677 18.3323 21.7526C18.336 21.1444 18.3257 20.5362 18.319 19.9281C18.319 19.9136 18.3043 19.8995 18.2967 19.8851C18.2924 19.0599 18.2887 18.234 18.2847 17.4081Z" fill="white"/>
<path d="M8.55439 4.00618C8.86868 4.07763 9.25855 3.99343 9.64974 4.01154C9.97635 4.02664 10.308 4.05583 10.6386 4.04576C10.8679 4.03872 11.0987 4.08602 11.3294 4.09742C11.7605 4.11822 12.186 4.00383 12.6182 4.03905C12.7886 4.05281 12.9601 4.07025 13.1309 4.06622C13.8324 4.04912 14.5335 4.02597 15.2347 4.00081C15.3962 3.99511 15.5523 4.02597 15.7095 4.04677C15.8316 4.06287 15.9498 4.07461 16.071 4.04442C16.2488 3.9998 16.4243 4.05214 16.5971 4.07595C16.9806 4.12862 17.3551 4.06321 17.7327 4.02295C17.793 4.01658 17.8582 4.00115 17.9138 4.01658C18.1988 4.0944 18.4805 4.05448 18.7631 4.00651C18.7957 4.00115 18.83 3.99746 18.8623 4.00215C19.3774 4.08031 19.8968 3.96492 20.4105 4.03704C20.7607 4.08635 21.11 4.12929 21.4635 4.09474C21.8447 4.05717 22.2223 4.07729 22.6025 4.12426C22.8712 4.15747 23.1365 4.04912 23.4109 4.06555C23.5946 4.07629 23.7711 4.11755 23.9449 4.1625C24.143 4.21383 24.2795 4.56572 24.2186 4.83275C24.1663 5.06187 24.1713 5.29568 24.1496 5.52715C24.1353 5.68079 24.131 5.84047 24.0641 5.97901C23.9279 6.2608 23.6602 6.39397 23.3503 6.33292C23.1582 6.29501 22.9667 6.28663 22.7736 6.28663C22.1647 6.28663 21.5558 6.27757 20.9478 6.31783C20.84 6.32487 20.7394 6.29434 20.6375 6.27556C20.2986 6.2135 19.967 6.29837 19.6324 6.30575C18.9975 6.3195 18.3596 6.35506 17.7277 6.24268C17.6338 6.22591 17.5403 6.2447 17.4477 6.26247C17.0811 6.33292 16.7142 6.32051 16.3434 6.29736C15.9525 6.27321 15.5586 6.28025 15.1664 6.29132C14.8918 6.29904 14.6284 6.26281 14.3704 6.17224C14.2952 6.14574 14.2186 6.13735 14.1447 6.17593C13.8883 6.30944 13.6176 6.2987 13.3383 6.28294C12.9917 6.26348 12.6415 6.30206 12.2952 6.27958C11.8198 6.24872 11.3467 6.32487 10.8733 6.28696C10.1658 6.23027 9.45964 6.31816 8.75249 6.292C8.62231 6.2873 8.4898 6.31548 8.35663 6.31313C7.94979 6.30575 7.75569 6.12527 7.69243 5.72104C7.65115 5.45704 7.60254 5.19806 7.67046 4.9307C7.69842 4.82067 7.63949 4.71232 7.61785 4.6043C7.5476 4.25576 7.68877 4.06991 8.03602 4.03134C8.18451 4.0149 8.33166 4.00282 8.55439 4.00618Z" fill="white"/>
</svg>
